<?xml version="1.0" standalone="no"?>
<!DOCTYPE svg PUBLIC "-//W3C//DTD SVG 20010904//EN"
 "http://www.w3.org/TR/2001/REC-SVG-20010904/DTD/svg10.dtd">
<svg version="1.0" xmlns="http://www.w3.org/2000/svg"
 width="1044.000000pt" height="1044.000000pt" viewBox="0 0 1044.000000 1044.000000"
 preserveAspectRatio="xMidYMid meet">
<metadata>
Created by potrace 1.14, written by Peter Selinger 2001-2017
</metadata>
<g transform="translate(0.000000,1044.000000) scale(0.100000,-0.100000)"
fill="#000000" stroke="none">
<path d="M2795 7188 c-3 -7 -4 -1115 -3 -2463 l3 -2450 2713 -3 2712 -2 0
2465 0 2465 -2710 0 c-2159 0 -2712 -3 -2715 -12z m2315 -537 c135 -23 208
-44 296 -86 72 -35 103 -57 147 -105 209 -225 206 -578 -14 -1635 -197 -943
-338 -1402 -509 -1656 -169 -249 -410 -381 -775 -424 -163 -19 -765 -22 -765
-4 0 7 153 735 341 1618 440 2073 489 2305 489 2310 0 8 731 -8 790 -18z
m2570 -1 c0 -36 -110 -534 -126 -570 -8 -19 -44 -87 -79 -150 -34 -63 -307
-565 -606 -1115 -298 -550 -603 -1110 -676 -1245 -73 -135 -133 -251 -133
-257 0 -10 98 -13 456 -13 429 0 455 -1 450 -17 -3 -10 -26 -121 -51 -248 -26
-126 -51 -247 -56 -267 l-10 -38 -764 0 c-421 0 -765 1 -765 3 0 4 108 528
118 574 12 52 -14 3 622 1173 228 420 631 1161 673 1240 22 41 59 109 82 150
36 64 102 188 113 213 2 4 -167 7 -377 7 -209 0 -382 4 -385 8 -5 8 109 546
120 563 3 5 295 9 700 9 686 0 694 0 694 -20z"/>
<path d="M4776 6079 c-3 -8 -32 -144 -66 -304 -62 -292 -121 -568 -230 -1075
-33 -151 -82 -381 -109 -510 -28 -129 -80 -374 -116 -543 -36 -170 -65 -315
-65 -323 0 -18 84 -19 162 -3 227 48 320 249 492 1069 25 118 70 332 101 475
123 579 145 706 152 880 7 168 -7 232 -59 281 -41 39 -79 52 -179 60 -63 5
-79 4 -83 -7z"/>
</g>
</svg>
